# xmcd CD database file
# Copyright (C) 1993-1998 Ti Kan
# 
# Track frame offsets:
#     150
#     17527
#     28670
#     46115
#     59037
#     72630
#     85737
#     104372
#     120535
#     141160
#     155707
#     167612
#     180582
#     195147
#     213080
#     225365
#     235590
#     247167
#     259465
#     268712
#     281415
# 
# Disc length: 3962 seconds
# 
# Revision: 1
# Processed by: cddbd v1.4b41PL1 Copyright (c) Steve Scherf et al.
# Submitted via: DiscPlay 4.0.4
# 
DISCID=220f7815
DTITLE=Various Country - Elvis: The Legend Lives On [CD2]
DYEAR=1900
DGENRE=
TTITLE0=O Sole Mio - It's Now or Never  (Medley)
TTITLE1=Unchained Melody
TTITLE2=Let It Be Me
TTITLE3=Burning Love
TTITLE4=Steamroller Blues
TTITLE5=It's Impossible
TTITLE6=An American Trilogy
TTITLE7=Let Me Be There
TTITLE8=Bridge Over Troubled Water
TTITLE9=Kentucky Rain
TTITLE10=Don't Cry Daddy
TTITLE11=Fairytale
TTITLE12=You Gave Me a Mountain
TTITLE13=My Way
TTITLE14=The Impossible Dream
TTITLE15=Good Rockin' Tonight
TTITLE16=Tryin' to Get to You
TTITLE17=Shake Rattle and Roll - Flip Flop and Fly  (Medley)
TTITLE18=Heartbreak Hotel
TTITLE19=Hound Dog
TTITLE20=Don't Be Cruel
EXTD=
EXTT0=
EXTT1=
EXTT2=
EXTT3=
EXTT4=
EXTT5=
EXTT6=
EXTT7=
EXTT8=
EXTT9=
EXTT10=
EXTT11=
EXTT12=
EXTT13=
EXTT14=
EXTT15=
EXTT16=
EXTT17=
EXTT18=
EXTT19=
EXTT20=
PLAYORDER=
